<mxfile host="www.draw.io" modified="2020-01-30T21:05:37.620Z" agent="Mozilla/5.0 (Windows NT 10.0; Win64; x64) AppleWebKit/537.36 (KHTML, like Gecko) Chrome/79.0.3945.130 Safari/537.36" etag="qcdSpTCE1VezAib6-ePP" version="12.6.2" type="github">
  <diagram id="_fTgssfwFPi_PuKQFO93" name="Page-1">
    <mxGraphModel dx="2062" dy="1131" grid="1" gridSize="10" guides="1" tooltips="1" connect="1" arrows="1" fold="1" page="1" pageScale="1" pageWidth="827" pageHeight="1169" math="0" shadow="0">
      <root>
        <mxCell id="0"/>
        <mxCell id="1" parent="0"/>
        <mxCell id="ADAHSDNH1dJOkYiK3QjO-37" value="" style="whiteSpace=wrap;html=1;aspect=fixed;strokeColor=#000000;fillColor=#CCCCCC;" vertex="1" parent="1">
          <mxGeometry x="80" width="80" height="80" as="geometry"/>
        </mxCell>
        <mxCell id="ADAHSDNH1dJOkYiK3QjO-38" value="" style="whiteSpace=wrap;html=1;aspect=fixed;strokeColor=#000000;fillColor=#CCCCCC;" vertex="1" parent="1">
          <mxGeometry x="160" width="80" height="80" as="geometry"/>
        </mxCell>
        <mxCell id="ADAHSDNH1dJOkYiK3QjO-3" value="" style="whiteSpace=wrap;html=1;aspect=fixed;fillColor=#CCCCCC;" vertex="1" parent="1">
          <mxGeometry x="80" y="80" width="80" height="80" as="geometry"/>
        </mxCell>
        <mxCell id="ADAHSDNH1dJOkYiK3QjO-5" value="" style="whiteSpace=wrap;html=1;aspect=fixed;gradientColor=#ffffff;gradientDirection=west;shadow=0;glass=0;" vertex="1" parent="1">
          <mxGeometry x="120" y="120" width="40" height="40" as="geometry"/>
        </mxCell>
        <mxCell id="ADAHSDNH1dJOkYiK3QjO-9" value="" style="group;rotation=90;fillColor=#CCCCCC;strokeColor=#000000;" vertex="1" connectable="0" parent="1">
          <mxGeometry x="240" y="80" width="80" height="80" as="geometry"/>
        </mxCell>
        <mxCell id="ADAHSDNH1dJOkYiK3QjO-10" value="" style="whiteSpace=wrap;html=1;aspect=fixed;fillColor=#CCCCCC;" vertex="1" parent="1">
          <mxGeometry x="160" y="80" width="80" height="80" as="geometry"/>
        </mxCell>
        <mxCell id="ADAHSDNH1dJOkYiK3QjO-11" value="" style="rounded=0;whiteSpace=wrap;html=1;gradientColor=#ffffff;gradientDirection=west;shadow=0;glass=0;" vertex="1" parent="1">
          <mxGeometry x="160" y="120" width="80" height="40" as="geometry"/>
        </mxCell>
        <mxCell id="ADAHSDNH1dJOkYiK3QjO-21" value="" style="whiteSpace=wrap;html=1;aspect=fixed;gradientColor=#ffffff;gradientDirection=west;shadow=0;glass=0;" vertex="1" parent="1">
          <mxGeometry x="160" y="160" width="80" height="80" as="geometry"/>
        </mxCell>
        <mxCell id="ADAHSDNH1dJOkYiK3QjO-7" value="" style="whiteSpace=wrap;html=1;aspect=fixed;rotation=90;gradientColor=#ffffff;gradientDirection=west;shadow=0;glass=0;" vertex="1" parent="1">
          <mxGeometry x="240" y="120" width="40" height="40" as="geometry"/>
        </mxCell>
        <mxCell id="ADAHSDNH1dJOkYiK3QjO-33" value="" style="whiteSpace=wrap;html=1;aspect=fixed;strokeColor=#000000;fillColor=#CCCCCC;" vertex="1" parent="1">
          <mxGeometry x="80" y="160" width="80" height="80" as="geometry"/>
        </mxCell>
        <mxCell id="ADAHSDNH1dJOkYiK3QjO-34" value="" style="whiteSpace=wrap;html=1;aspect=fixed;strokeColor=#000000;fillColor=#CCCCCC;" vertex="1" parent="1">
          <mxGeometry x="240" y="160" width="80" height="80" as="geometry"/>
        </mxCell>
        <mxCell id="ADAHSDNH1dJOkYiK3QjO-23" value="" style="rounded=0;whiteSpace=wrap;html=1;rotation=90;gradientColor=#ffffff;gradientDirection=west;shadow=0;glass=0;" vertex="1" parent="1">
          <mxGeometry x="220" y="180" width="80" height="40" as="geometry"/>
        </mxCell>
        <mxCell id="ADAHSDNH1dJOkYiK3QjO-36" value="" style="rounded=0;whiteSpace=wrap;html=1;rotation=90;gradientColor=#ffffff;gradientDirection=west;shadow=0;glass=0;" vertex="1" parent="1">
          <mxGeometry x="100" y="180" width="80" height="40" as="geometry"/>
        </mxCell>
        <mxCell id="ADAHSDNH1dJOkYiK3QjO-12" value="" style="whiteSpace=wrap;html=1;aspect=fixed;rotation=-180;fillColor=#CCCCCC;" vertex="1" parent="1">
          <mxGeometry x="240" y="240" width="80" height="80" as="geometry"/>
        </mxCell>
        <mxCell id="ADAHSDNH1dJOkYiK3QjO-13" value="" style="whiteSpace=wrap;html=1;aspect=fixed;rotation=-180;gradientColor=#ffffff;gradientDirection=west;shadow=0;glass=0;" vertex="1" parent="1">
          <mxGeometry x="240" y="240" width="40" height="40" as="geometry"/>
        </mxCell>
        <mxCell id="ADAHSDNH1dJOkYiK3QjO-18" value="" style="whiteSpace=wrap;html=1;aspect=fixed;rotation=-180;fillColor=#CCCCCC;" vertex="1" parent="1">
          <mxGeometry x="160" y="240" width="80" height="80" as="geometry"/>
        </mxCell>
        <mxCell id="ADAHSDNH1dJOkYiK3QjO-19" value="" style="rounded=0;whiteSpace=wrap;html=1;rotation=-180;gradientColor=#ffffff;gradientDirection=west;shadow=0;glass=0;" vertex="1" parent="1">
          <mxGeometry x="160" y="240" width="80" height="40" as="geometry"/>
        </mxCell>
        <mxCell id="ADAHSDNH1dJOkYiK3QjO-16" value="" style="whiteSpace=wrap;html=1;aspect=fixed;rotation=-90;fillColor=#CCCCCC;" vertex="1" parent="1">
          <mxGeometry x="80" y="240" width="80" height="80" as="geometry"/>
        </mxCell>
        <mxCell id="ADAHSDNH1dJOkYiK3QjO-17" value="" style="whiteSpace=wrap;html=1;aspect=fixed;rotation=-90;gradientColor=#ffffff;gradientDirection=west;shadow=0;glass=0;" vertex="1" parent="1">
          <mxGeometry x="120" y="240" width="40" height="40" as="geometry"/>
        </mxCell>
        <mxCell id="ADAHSDNH1dJOkYiK3QjO-41" value="Inner Corner" style="text;html=1;strokeColor=none;fillColor=none;align=center;verticalAlign=middle;whiteSpace=wrap;rounded=0;shadow=0;glass=0;" vertex="1" parent="1">
          <mxGeometry x="50" y="1050" width="80" height="20" as="geometry"/>
        </mxCell>
        <mxCell id="ADAHSDNH1dJOkYiK3QjO-48" value="" style="whiteSpace=wrap;html=1;aspect=fixed;strokeColor=#000000;fillColor=#CCCCCC;" vertex="1" parent="1">
          <mxGeometry x="240" width="80" height="80" as="geometry"/>
        </mxCell>
        <mxCell id="ADAHSDNH1dJOkYiK3QjO-49" value="" style="whiteSpace=wrap;html=1;aspect=fixed;strokeColor=#000000;fillColor=#CCCCCC;" vertex="1" parent="1">
          <mxGeometry x="320" width="80" height="80" as="geometry"/>
        </mxCell>
        <mxCell id="ADAHSDNH1dJOkYiK3QjO-50" value="" style="whiteSpace=wrap;html=1;aspect=fixed;strokeColor=#000000;fillColor=#CCCCCC;" vertex="1" parent="1">
          <mxGeometry width="80" height="80" as="geometry"/>
        </mxCell>
        <mxCell id="ADAHSDNH1dJOkYiK3QjO-51" value="" style="whiteSpace=wrap;html=1;aspect=fixed;strokeColor=#000000;fillColor=#CCCCCC;" vertex="1" parent="1">
          <mxGeometry y="80" width="80" height="80" as="geometry"/>
        </mxCell>
        <mxCell id="ADAHSDNH1dJOkYiK3QjO-52" value="" style="whiteSpace=wrap;html=1;aspect=fixed;strokeColor=#000000;fillColor=#CCCCCC;" vertex="1" parent="1">
          <mxGeometry y="160" width="80" height="80" as="geometry"/>
        </mxCell>
        <mxCell id="ADAHSDNH1dJOkYiK3QjO-53" value="" style="whiteSpace=wrap;html=1;aspect=fixed;strokeColor=#000000;fillColor=#CCCCCC;" vertex="1" parent="1">
          <mxGeometry y="240" width="80" height="80" as="geometry"/>
        </mxCell>
        <mxCell id="ADAHSDNH1dJOkYiK3QjO-54" value="" style="whiteSpace=wrap;html=1;aspect=fixed;strokeColor=#000000;fillColor=#CCCCCC;" vertex="1" parent="1">
          <mxGeometry x="320" y="80" width="80" height="80" as="geometry"/>
        </mxCell>
        <mxCell id="ADAHSDNH1dJOkYiK3QjO-55" value="" style="whiteSpace=wrap;html=1;aspect=fixed;strokeColor=#000000;fillColor=#CCCCCC;" vertex="1" parent="1">
          <mxGeometry x="320" y="160" width="80" height="80" as="geometry"/>
        </mxCell>
        <mxCell id="ADAHSDNH1dJOkYiK3QjO-56" value="" style="whiteSpace=wrap;html=1;aspect=fixed;strokeColor=#000000;fillColor=#CCCCCC;" vertex="1" parent="1">
          <mxGeometry x="320" y="240" width="80" height="80" as="geometry"/>
        </mxCell>
        <mxCell id="ADAHSDNH1dJOkYiK3QjO-58" value="" style="endArrow=none;html=1;entryX=1;entryY=0;entryDx=0;entryDy=0;" edge="1" parent="1" target="ADAHSDNH1dJOkYiK3QjO-49">
          <mxGeometry width="50" height="50" relative="1" as="geometry">
            <mxPoint x="280" y="120" as="sourcePoint"/>
            <mxPoint x="330" y="70" as="targetPoint"/>
          </mxGeometry>
        </mxCell>
        <mxCell id="ADAHSDNH1dJOkYiK3QjO-59" value="" style="endArrow=none;html=1;entryX=0;entryY=0;entryDx=0;entryDy=0;" edge="1" parent="1" target="ADAHSDNH1dJOkYiK3QjO-50">
          <mxGeometry width="50" height="50" relative="1" as="geometry">
            <mxPoint x="120" y="120" as="sourcePoint"/>
            <mxPoint x="240" as="targetPoint"/>
          </mxGeometry>
        </mxCell>
        <mxCell id="ADAHSDNH1dJOkYiK3QjO-60" value="" style="endArrow=none;html=1;entryX=1;entryY=1;entryDx=0;entryDy=0;" edge="1" parent="1" target="ADAHSDNH1dJOkYiK3QjO-56">
          <mxGeometry width="50" height="50" relative="1" as="geometry">
            <mxPoint x="280" y="280" as="sourcePoint"/>
            <mxPoint x="400" y="160" as="targetPoint"/>
          </mxGeometry>
        </mxCell>
        <mxCell id="ADAHSDNH1dJOkYiK3QjO-61" value="" style="endArrow=none;html=1;entryX=0;entryY=1;entryDx=0;entryDy=0;" edge="1" parent="1" target="ADAHSDNH1dJOkYiK3QjO-53">
          <mxGeometry width="50" height="50" relative="1" as="geometry">
            <mxPoint x="120" y="280" as="sourcePoint"/>
            <mxPoint x="240" y="320" as="targetPoint"/>
          </mxGeometry>
        </mxCell>
        <mxCell id="ADAHSDNH1dJOkYiK3QjO-29" value="" style="whiteSpace=wrap;html=1;aspect=fixed;fillColor=#CCCCCC;" vertex="1" parent="1">
          <mxGeometry x="600" y="40" width="160" height="160" as="geometry"/>
        </mxCell>
        <mxCell id="ADAHSDNH1dJOkYiK3QjO-28" value="" style="whiteSpace=wrap;html=1;aspect=fixed;fillColor=none;" vertex="1" parent="1">
          <mxGeometry x="560" width="80" height="80" as="geometry"/>
        </mxCell>
        <mxCell id="ADAHSDNH1dJOkYiK3QjO-30" value="" style="whiteSpace=wrap;html=1;aspect=fixed;fillColor=none;" vertex="1" parent="1">
          <mxGeometry x="720" width="80" height="80" as="geometry"/>
        </mxCell>
        <mxCell id="ADAHSDNH1dJOkYiK3QjO-63" value="" style="whiteSpace=wrap;html=1;aspect=fixed;fillColor=none;" vertex="1" parent="1">
          <mxGeometry x="640" width="80" height="80" as="geometry"/>
        </mxCell>
        <mxCell id="ADAHSDNH1dJOkYiK3QjO-64" value="" style="whiteSpace=wrap;html=1;aspect=fixed;fillColor=none;" vertex="1" parent="1">
          <mxGeometry x="720" y="80" width="80" height="80" as="geometry"/>
        </mxCell>
        <mxCell id="ADAHSDNH1dJOkYiK3QjO-65" value="" style="whiteSpace=wrap;html=1;aspect=fixed;fillColor=none;" vertex="1" parent="1">
          <mxGeometry x="640" y="160" width="80" height="80" as="geometry"/>
        </mxCell>
        <mxCell id="ADAHSDNH1dJOkYiK3QjO-66" value="" style="whiteSpace=wrap;html=1;aspect=fixed;fillColor=none;" vertex="1" parent="1">
          <mxGeometry x="560" y="80" width="80" height="80" as="geometry"/>
        </mxCell>
        <mxCell id="ADAHSDNH1dJOkYiK3QjO-67" value="" style="endArrow=none;html=1;exitX=0;exitY=1;exitDx=0;exitDy=0;" edge="1" parent="1" source="ADAHSDNH1dJOkYiK3QjO-29">
          <mxGeometry width="50" height="50" relative="1" as="geometry">
            <mxPoint x="520" y="270" as="sourcePoint"/>
            <mxPoint x="760" y="40" as="targetPoint"/>
          </mxGeometry>
        </mxCell>
        <mxCell id="ADAHSDNH1dJOkYiK3QjO-68" value="" style="endArrow=none;html=1;exitX=0;exitY=1;exitDx=0;exitDy=0;entryX=1;entryY=1;entryDx=0;entryDy=0;" edge="1" parent="1" target="ADAHSDNH1dJOkYiK3QjO-29">
          <mxGeometry width="50" height="50" relative="1" as="geometry">
            <mxPoint x="600" y="40" as="sourcePoint"/>
            <mxPoint x="760" y="-120" as="targetPoint"/>
          </mxGeometry>
        </mxCell>
        <mxCell id="ADAHSDNH1dJOkYiK3QjO-32" value="" style="whiteSpace=wrap;html=1;aspect=fixed;fillColor=none;" vertex="1" parent="1">
          <mxGeometry x="720" y="160" width="80" height="80" as="geometry"/>
        </mxCell>
        <mxCell id="ADAHSDNH1dJOkYiK3QjO-31" value="" style="whiteSpace=wrap;html=1;aspect=fixed;fillColor=none;" vertex="1" parent="1">
          <mxGeometry x="560" y="160" width="80" height="80" as="geometry"/>
        </mxCell>
      </root>
    </mxGraphModel>
  </diagram>
</mxfile>
